<svg width="68" height="71" viewBox="0 0 68 71" xmlns="http://www.w3.org/2000/svg"><title>BBB Logo</title><g fill="#424242" fill-rule="evenodd"><path d="M49.442 33.511c0-2.538-2.245-2.538-3.442-2.538V28h13.993c6.286 0 7.189 3.698 7.259 4.786.075 1.16-.45 3.118-1.721 4.134 1.347.797 2.469 2.248 2.469 4.424C68 44.607 65.83 47 61.864 47H46v-3.046c2.47 0 3.442-1.015 3.442-2.828l4.864 2.103h5.463c1.198 0 2.17-.942 2.17-2.103 0-1.161-.972-2.102-2.17-2.102h-5.463V35.28h5.275c1.009 0 1.826-.791 1.826-1.769 0-.977-.817-1.769-1.826-1.769l-5.275.029v11.458l-4.864-2.103V33.51M26.442 33.511c0-2.538-2.245-2.538-3.442-2.538V28h13.993c6.286 0 7.189 3.698 7.259 4.786.075 1.16-.45 3.118-1.721 4.134 1.347.797 2.469 2.248 2.469 4.424C45 44.607 42.83 47 38.864 47H23v-3.046c2.47 0 3.442-1.015 3.442-2.828l4.864 2.103h5.463c1.198 0 2.17-.942 2.17-2.103 0-1.161-.972-2.102-2.17-2.102h-5.463V35.28h5.276c1.008 0 1.825-.791 1.825-1.769 0-.977-.817-1.769-1.825-1.769l-5.276.029v11.458l-4.864-2.103V33.51M3.442 33.511c0-2.538-2.245-2.538-3.442-2.538V28h13.993c6.286 0 7.189 3.698 7.259 4.786.075 1.16-.45 3.118-1.721 4.134 1.347.797 2.469 2.248 2.469 4.424C22 44.607 19.83 47 15.864 47H0v-3.046c2.47 0 3.442-1.015 3.442-2.828l4.864 2.103h5.463c1.198 0 2.17-.942 2.17-2.103 0-1.161-.972-2.102-2.17-2.102H8.306V35.28h5.276c1.008 0 1.826-.791 1.826-1.769 0-.977-.818-1.769-1.826-1.769l-5.276.029v11.458l-4.864-2.103V33.51M39.054 52.815L36.45 70h-4.9l-2.604-17.185H0V50h68v2.815H39.054M43.498 22.024c-.582-.447-.582-1.711.184-2.232.765-.521 2.527-3.125 2.297-5.953-.23-2.827-2.22-6.324-6.51-8.63-1.225-.82-4.06-2.754-4.519-4.316-.536 1.786.536 3.497 2.451 5.06 1.915 1.562 5.285 4.613 5.668 6.696.383 2.083-.076 5.06-1.685 7.068.46-2.083 1.072-6.696-2.068-9.672-3.14-2.977-6.664-5.878-6.74-10.045-1.073 1.786-.843 3.943.689 6.176 1.532 2.232 6.434 6.92 6.434 9.3 0 2.381-.307 4.837-2.145 6.548H27.52c-2.144-1.637-3.906-4.018-3.676-6.622.23-2.604 1.71-4.106 2.91-5.06.843-.67 4.443-3.869 3.524-6.399-.92 2.158-2.451 3.944-4.596 5.506-2.03 1.48-3.676 3.646-3.676 6.027-.077 1.935.612 4.093 1.838 5.209.69.595.903 1.041.72 1.339-.61 0-1.103.48-1.103 1.071v.834c0 .592.494 1.071 1.103 1.071h18.934c.608 0 1.102-.48 1.102-1.071v-.834c0-.591-.494-1.071-1.102-1.071"/><path d="M31 6c-.328 1.236-2.215 3.271-3.444 4.58-1.231 1.308-2.707 3.199-2.543 5.307.164 2.108 1.722 3.199 3.527 4.071.492.145 1.148-.073.328-.872-.82-.8-2.05-1.89-1.969-3.926.082-2.036.738-3.272 1.969-4.435C30.098 9.562 30.918 7.745 31 6c0 0-.082 1.745 0 0"/><path d="M31.26 20.808c-1.511-1.082-2.626-2.885-2.148-4.76.477-1.875 2.387-3.822 2.546-5.048.319 1.081-.477 2.884-.954 3.894-.478 1.01-.558 3.39 1.114 5.409.477.577-.08.937-.557.505 0 0 .477.432 0 0M40.504 68.22c.69 0 1.225.554 1.225 1.272 0 .734-.535 1.288-1.225 1.288-.698 0-1.233-.554-1.233-1.288 0-.718.535-1.272 1.233-1.272V68c-.818 0-1.504.646-1.504 1.492 0 .862.686 1.508 1.504 1.508.814 0 1.496-.646 1.496-1.508 0-.846-.682-1.492-1.496-1.492v.22"/><path d="M39.205 69.252h.27c.14 0 .29.04.29.307 0 .315-.166.329-.346.329h-.214v.252h.217l.358.86H40l-.377-.883c.196-.032.347-.183.347-.545 0-.384-.148-.572-.461-.572H39v2h.205v-1.748"/></g></svg>