<svg xmlns="http://www.w3.org/2000/svg" viewBox="0 0 7.739 37.1"><path fill="#3FA9F5" d="M6.514 3.993c-.168-.521-.466-.973-.762-1.383-.21-.29-.423-.569-.628-.839A22.561 22.561 0 0 1 4.061.296L3.869 0l-.191.296c-.338.524-.69.986-1.063 1.475-.205.27-.418.549-.628.839-.297.41-.595.862-.763 1.383a2.343 2.343 0 0 0 .007 1.492c.22.636.738 1.199 1.384 1.506.369.175.814.272 1.254.275.44-.002.885-.1 1.254-.275.646-.307 1.164-.87 1.384-1.506.165-.478.168-.994.007-1.492zm.53 14.263c-.202-.625-.56-1.167-.916-1.66a50.803 50.803 0 0 0-.754-1.007c-.447-.587-.869-1.141-1.275-1.77l-.23-.355-.23.355c-.406.629-.828 1.183-1.275 1.77-.247.324-.502.658-.754 1.007-.356.493-.714 1.035-.916 1.66a2.797 2.797 0 0 0 .009 1.79c.264.763.885 1.439 1.661 1.807.443.209.977.327 1.505.33a3.63 3.63 0 0 0 1.505-.33c.775-.368 1.396-1.043 1.661-1.807a2.81 2.81 0 0 0 .009-1.79zm.529 14.263c-.236-.73-.653-1.362-1.068-1.937a56.974 56.974 0 0 0-.88-1.174c-.521-.685-1.014-1.331-1.487-2.065l-.268-.415-.268.415c-.473.734-.966 1.38-1.487 2.065-.288.378-.585.768-.879 1.174-.415.575-.833 1.207-1.068 1.937a3.274 3.274 0 0 0 .01 2.089c.308.89 1.033 1.678 1.937 2.108a4.26 4.26 0 0 0 1.756.385 4.229 4.229 0 0 0 1.756-.385c.905-.429 1.629-1.217 1.937-2.108.23-.668.233-1.391.009-2.089z"/></svg>