<svg width="8" height="13" viewBox="0 0 8 13" xmlns="http://www.w3.org/2000/svg"><title>Shape 4</title><path d="M6.503 4.532a56.974 56.974 0 0 0-.88-1.174c-.521-.685-1.014-1.331-1.487-2.065L3.868.878l-.268.415c-.473.734-.966 1.38-1.487 2.065-.288.378-.585.768-.879 1.174C.819 5.107.401 5.739.166 6.469a3.274 3.274 0 0 0 .01 2.089c.308.89 1.033 1.678 1.938 2.108a4.26 4.26 0 0 0 1.756.385 4.229 4.229 0 0 0 1.756-.385c.905-.429 1.629-1.217 1.937-2.108.23-.669.233-1.391.008-2.089-.236-.73-.653-1.362-1.068-1.937z" fill="#3FA9F5" fill-rule="evenodd"/></svg>