<svg width="126" height="126" viewBox="0 0 126 126" xmlns="http://www.w3.org/2000/svg"><title>five-stars</title><g transform="translate(1 1)" fill="none" fill-rule="evenodd"><rect stroke="#1485E0" stroke-width="2" width="124" height="124" rx="12"/><g fill="#1485E0"><path d="M59.556 75.225c.9-.9.4-2.5-.9-2.8l-7.4-1.4c-.5-.1-.9-.4-1.1-.8l-3.7-6.4c-.6-1.1-2.3-1.1-2.9 0l-3.7 6.4c-.2.4-.7.7-1.1.8l-7.4 1.4c-1.3.2-1.8 1.8-.9 2.8l5.1 5.3c.3.4.5.9.4 1.3l-.9 7.2c-.2 1.3 1.2 2.2 2.4 1.7l6.9-3.1c.4-.2 1-.2 1.4 0l6.9 3.1c1.2.5 2.5-.4 2.4-1.7l-.9-7.2c-.1-.5.1-1 .4-1.3l5-5.3zM94.556 75.225c.9-.9.4-2.5-.9-2.8l-7.4-1.4c-.5-.1-.9-.4-1.1-.8l-3.7-6.4c-.6-1.1-2.3-1.1-2.9 0l-3.7 6.4c-.2.4-.7.7-1.1.8l-7.4 1.4c-1.3.2-1.8 1.8-.9 2.8l5.1 5.3c.3.4.5.9.4 1.3l-.9 7.2c-.2 1.3 1.2 2.2 2.4 1.7l6.9-3.1c.4-.2 1-.2 1.4 0l6.9 3.1c1.2.5 2.5-.4 2.4-1.7l-.9-7.2c-.1-.5.1-1 .4-1.3l5-5.3zM41.556 46.225c.9-.9.4-2.5-.9-2.8l-7.4-1.4c-.5-.1-.9-.4-1.1-.8l-3.7-6.4c-.6-1.1-2.3-1.1-2.9 0l-3.7 6.4c-.2.4-.7.7-1.1.8l-7.4 1.4c-1.3.2-1.8 1.8-.9 2.8l5.1 5.3c.3.4.5.9.4 1.3l-.9 7.2c-.2 1.3 1.2 2.2 2.4 1.7l6.9-3.1c.4-.2 1-.2 1.4 0l6.9 3.1c1.2.5 2.5-.4 2.4-1.7l-.9-7.2c-.1-.5.1-1 .4-1.3l5-5.3zM76.556 46.225c.9-.9.4-2.5-.9-2.8l-7.4-1.4c-.5-.1-.9-.4-1.1-.8l-3.7-6.4c-.6-1.1-2.3-1.1-2.9 0l-3.7 6.4c-.2.4-.7.7-1.1.8l-7.4 1.4c-1.3.2-1.8 1.8-.9 2.8l5.1 5.3c.3.4.5.9.4 1.3l-.9 7.2c-.2 1.3 1.2 2.2 2.4 1.7l6.9-3.1c.4-.2 1-.2 1.4 0l6.9 3.1c1.2.5 2.5-.4 2.4-1.7l-.9-7.2c-.1-.5.1-1 .4-1.3l5-5.3zM111.556 46.225c.9-.9.4-2.5-.9-2.8l-7.4-1.4c-.5-.1-.9-.4-1.1-.8l-3.7-6.4c-.6-1.1-2.3-1.1-2.9 0l-3.7 6.4c-.2.4-.7.7-1.1.8l-7.4 1.4c-1.3.2-1.8 1.8-.9 2.8l5.1 5.3c.3.4.5.9.4 1.3l-.9 7.2c-.2 1.3 1.2 2.2 2.4 1.7l6.9-3.1c.4-.2 1-.2 1.4 0l6.9 3.1c1.2.5 2.5-.4 2.4-1.7l-.9-7.2c-.1-.5.1-1 .4-1.3l5-5.3z"/></g></g></svg>