<svg width="126" height="126" viewBox="0 0 126 126" xmlns="http://www.w3.org/2000/svg"><title>games</title><g fill="none" fill-rule="evenodd"><path d="M1 63C1 28.758 28.75 1 63 1c34.242 0 62 27.75 62 62 0 34.242-27.75 62-62 62-34.242 0-62-27.75-62-62z" stroke="#1485E0" stroke-width="2"/><path d="M64.142 32c13.696 12.949 27.392 25.897 27.392 39.095 0 7.221-6.226 12.948-13.696 12.948-6.225 0-9.712-1.494-12.7-6.972C68.375 88.277 71.613 95 77.838 95H50.696c6.225 0 9.711-6.723 12.7-17.929-3.238 5.478-6.475 7.47-12.7 7.47-7.47 0-13.696-5.976-13.696-13.197C37 58.395 50.696 44.949 64.142 32z" fill="#1485E0"/></g></svg>