<svg width="180" height="180" viewBox="0 0 180 180" xmlns="http://www.w3.org/2000/svg"><title>heating+air</title><defs><linearGradient x1="7.701%" y1="38.802%" x2="92.345%" y2="38.802%" id="a"><stop stop-color="#7CDAFF" offset="0%"/><stop stop-color="#46B3FF" offset="100%"/></linearGradient><linearGradient x1="100%" y1="50%" x2="11.893%" y2="50%" id="b"><stop stop-color="#FF88AF" offset="0%"/><stop stop-color="#FF5076" offset="100%"/></linearGradient></defs><g fill="none" fill-rule="evenodd"><rect fill="#FCFCFC" width="180" height="180" rx="10.405"/><path d="M84.786 74.39v.024H52.023v-6.286h32.058c2.12 0 3.84-1.732 3.84-3.869 0-2.137-1.72-3.869-3.84-3.869-1.37 0-2.446.452-3.45 1.313-.909.78-2.167 2.273-2.167 2.273l-3.04-4.926c1.762-2.963 4.98-4.946 8.657-4.946 5.567 0 10.08 4.547 10.08 10.155 0 5.37-4.137 9.766-9.375 10.131zm23.41 9.374v.024H69.19v-6.286h38.3c2.12 0 3.84-1.732 3.84-3.869 0-2.137-1.72-3.869-3.84-3.869-1.37 0-2.446.452-3.45 1.313-.909.78-2.168 2.273-2.168 2.273l-3.039-4.926c1.761-2.963 4.979-4.946 8.657-4.946 5.568 0 10.081 4.547 10.081 10.155 0 5.37-4.137 9.766-9.376 10.131zM94.15 88.5v-.025H61.388v6.287h32.057c2.121 0 3.84 1.732 3.84 3.869 0 2.136-1.719 3.869-3.84 3.869-1.37 0-2.446-.452-3.45-1.313-.909-.78-2.167-2.274-2.167-2.274l-3.039 4.927c1.76 2.962 4.978 4.946 8.656 4.946 5.567 0 10.081-4.547 10.081-10.155 0-5.37-4.137-9.767-9.376-10.131z" fill="url(#a)" transform="translate(31.214 35.376)"/><path d="M32.787 20.286v.024h32.762v-6.286H33.492c-2.122 0-3.841-1.732-3.841-3.869 0-2.137 1.72-3.869 3.84-3.869 1.37 0 2.447.452 3.45 1.313.909.78 2.168 2.273 2.168 2.273l3.038-4.926C40.387 1.983 37.17 0 33.492 0 27.924 0 23.41 4.547 23.41 10.155c0 5.37 4.138 9.766 9.377 10.13zM9.377 29.66v.024h39.005v-6.286h-38.3c-2.122 0-3.841-1.732-3.841-3.869 0-2.137 1.72-3.869 3.84-3.869 1.37 0 2.447.452 3.45 1.313.91.78 2.168 2.273 2.168 2.273l3.039-4.926c-1.761-2.963-4.979-4.946-8.656-4.946C4.514 9.374 0 13.921 0 19.529c0 5.37 4.138 9.766 9.377 10.13zm14.046 4.736v-.025h32.762v6.287H24.127c-2.12 0-3.84 1.732-3.84 3.869 0 2.136 1.72 3.868 3.84 3.868 1.37 0 2.446-.451 3.45-1.312.909-.78 2.168-2.274 2.168-2.274l3.038 4.927c-1.76 2.962-4.978 4.946-8.656 4.946-5.567 0-10.08-4.547-10.08-10.155 0-5.37 4.137-9.767 9.376-10.131z" fill="url(#b)" transform="translate(31.214 35.376)"/><g transform="translate(148 150)" fill="#3FAAF5"><rect width="23" height="5" rx="4"/><rect y="8" width="23" height="5" rx="4"/><rect y="16" width="23" height="5" rx="4"/></g></g></svg>