<svg width="267" height="119" viewBox="0 0 267 119" xmlns="http://www.w3.org/2000/svg"><title>logo</title><defs><linearGradient x1="50%" y1="0%" x2="50%" y2="100%" id="a"><stop stop-color="#529DF3" offset="0%"/><stop stop-color="#0F6EDC" offset="100%"/></linearGradient></defs><g fill="none" fill-rule="evenodd"><path d="M.965 74.446V118h9.577v-17.995h21.934v-7.442H10.542V82.498h24.74v-8.052H.965z" fill="#0F6EDC"/><path d="M10.542 20.942V7.888h7.442c1.098 0 2.155.081 3.172.244 1.017.163 1.911.478 2.684.946.773.467 1.393 1.128 1.86 1.982.468.854.702 1.972.702 3.355s-.234 2.501-.701 3.355c-.468.854-1.088 1.515-1.86 1.983-.774.467-1.668.782-2.685.945a20.057 20.057 0 0 1-3.172.244h-7.442zM.965.446V44h9.577V28.384h10.065c2.725 0 5.043-.396 6.954-1.19 1.911-.793 3.467-1.84 4.667-3.141a12.028 12.028 0 0 0 2.623-4.483c.549-1.688.823-3.406.823-5.155 0-1.79-.274-3.518-.823-5.185a12.068 12.068 0 0 0-2.623-4.453c-1.2-1.301-2.756-2.348-4.667-3.142C25.65.842 23.331.446 20.607.446H.965z" fill="#519DF4"/><path d="M40.294.446V118h8.662V.446h-8.662z" fill="url(#a)"/><path d="M85.373 44V12.463h-8.662v16.531c0 3.213-.529 5.52-1.586 6.923-1.057 1.404-2.765 2.105-5.124 2.105-2.074 0-3.518-.64-4.33-1.922-.814-1.28-1.22-3.222-1.22-5.825V12.463h-8.663v19.398c0 1.952.173 3.731.519 5.338.345 1.606.945 2.968 1.8 4.087.853 1.118 2.022 1.982 3.507 2.592 1.484.61 3.385.915 5.703.915 1.83 0 3.62-.407 5.368-1.22 1.749-.813 3.172-2.135 4.27-3.965h.183V44h8.235zM92.205 12.463V44h8.662V25.7c0-1.545.224-2.796.671-3.752.447-.955.986-1.687 1.617-2.195.63-.509 1.28-.854 1.952-1.038.67-.183 1.21-.274 1.616-.274 1.383 0 2.43.234 3.142.701a3.893 3.893 0 0 1 1.525 1.861 7.79 7.79 0 0 1 .518 2.532c.04.915.061 1.84.061 2.775V44h8.662V26.432c0-.976.071-1.942.214-2.897.142-.956.427-1.81.854-2.563a5.082 5.082 0 0 1 1.769-1.83c.752-.467 1.738-.701 2.958-.701 1.22 0 2.186.203 2.898.61.711.407 1.25.956 1.616 1.647.366.691.59 1.505.671 2.44.081.935.122 1.932.122 2.989V44h8.662V22.894c0-2.033-.285-3.772-.854-5.215-.57-1.444-1.362-2.613-2.379-3.508s-2.237-1.545-3.66-1.952c-1.423-.407-2.969-.61-4.636-.61-2.196 0-4.097.529-5.703 1.586-1.607 1.057-2.878 2.277-3.813 3.66-.854-1.952-2.104-3.314-3.751-4.087-1.647-.773-3.467-1.159-5.46-1.159-2.074 0-3.914.447-5.52 1.342-1.607.895-2.98 2.155-4.118 3.782h-.122v-4.27h-8.174zM147.227.446V44h8.235v-4.026h.122c.935 1.749 2.318 2.989 4.148 3.721 1.83.732 3.904 1.098 6.222 1.098 1.586 0 3.152-.325 4.697-.976 1.545-.65 2.938-1.647 4.179-2.989 1.24-1.342 2.246-3.06 3.02-5.155.772-2.094 1.158-4.585 1.158-7.472 0-2.887-.386-5.378-1.159-7.473-.773-2.094-1.78-3.812-3.02-5.154s-2.633-2.338-4.178-2.989c-1.545-.65-3.11-.976-4.697-.976-1.952 0-3.833.376-5.642 1.129-1.81.752-3.244 1.941-4.3 3.568h-.123V.446h-8.662zm23.12 27.816a16.59 16.59 0 0 1-.428 3.782c-.285 1.22-.732 2.298-1.342 3.233a7.029 7.029 0 0 1-2.287 2.227c-.915.549-2.024.823-3.325.823-1.26 0-2.359-.274-3.294-.823a6.926 6.926 0 0 1-2.318-2.227c-.61-.935-1.057-2.013-1.342-3.233a16.59 16.59 0 0 1-.427-3.782c0-1.342.142-2.623.427-3.843.285-1.22.732-2.298 1.342-3.233a6.926 6.926 0 0 1 2.318-2.227c.935-.549 2.033-.823 3.294-.823 1.301 0 2.41.274 3.325.823a7.029 7.029 0 0 1 2.287 2.227c.61.935 1.057 2.013 1.342 3.233.285 1.22.427 2.501.427 3.843z" fill="#519DF4"/><path d="M193.404 7.583V.446h-8.662v7.137h8.662z" fill="#0F6EDC"/><path d="M184.742 12.463V44h8.662V12.463h-8.662zM200.236 12.463V44h8.662V27.469c0-3.213.529-5.52 1.586-6.924 1.057-1.403 2.765-2.104 5.124-2.104 2.074 0 3.518.64 4.331 1.922.813 1.28 1.22 3.222 1.22 5.825V44h8.662V24.602c0-1.952-.173-3.731-.518-5.337-.346-1.607-.946-2.97-1.8-4.088-.854-1.118-2.023-1.992-3.507-2.622-1.485-.63-3.386-.946-5.704-.946-1.83 0-3.62.417-5.368 1.25-1.749.834-3.172 2.166-4.27 3.996h-.183v-4.392h-8.235zM266.726 41.987V12.463h-8.235v4.209h-.122c-1.057-1.83-2.369-3.131-3.934-3.904-1.566-.773-3.386-1.159-5.46-1.159-2.196 0-4.138.427-5.825 1.281a12.528 12.528 0 0 0-4.24 3.447c-1.139 1.443-2.003 3.11-2.592 5.002a19.658 19.658 0 0 0-.885 5.886c0 2.155.254 4.199.763 6.13.508 1.932 1.311 3.62 2.41 5.064 1.097 1.443 2.5 2.582 4.208 3.416 1.708.833 3.741 1.25 6.1 1.25 1.911 0 3.731-.396 5.46-1.19 1.728-.793 3.06-2.023 3.995-3.69h.122v4.148c.04 2.237-.498 4.087-1.616 5.551-1.119 1.464-2.898 2.196-5.338 2.196-1.545 0-2.908-.315-4.087-.946-1.18-.63-1.972-1.758-2.379-3.385h-8.6c.121 1.79.62 3.324 1.494 4.605a10.793 10.793 0 0 0 3.294 3.142 15.018 15.018 0 0 0 4.392 1.8c1.606.386 3.182.579 4.727.579 3.62 0 6.507-.488 8.662-1.464 2.155-.976 3.802-2.165 4.941-3.569 1.139-1.403 1.88-2.917 2.227-4.544.345-1.627.518-3.07.518-4.331zm-15.616-5.429c-1.342 0-2.46-.285-3.355-.854a6.77 6.77 0 0 1-2.165-2.196c-.55-.895-.936-1.901-1.16-3.02a17.22 17.22 0 0 1-.335-3.385c0-1.18.132-2.308.397-3.386.264-1.077.69-2.033 1.28-2.866a6.606 6.606 0 0 1 2.197-1.983c.874-.488 1.921-.732 3.141-.732 1.423 0 2.603.264 3.538.793a6.315 6.315 0 0 1 2.257 2.135c.57.895.976 1.921 1.22 3.08.244 1.16.366 2.39.366 3.691 0 1.139-.152 2.226-.457 3.264a8.646 8.646 0 0 1-1.373 2.775 6.763 6.763 0 0 1-2.318 1.952c-.935.488-2.013.732-3.233.732z" fill="#519DF4"/><path d="M55.056 102.262c0 2.521.386 4.799 1.159 6.832.773 2.033 1.87 3.772 3.294 5.216 1.423 1.443 3.131 2.551 5.124 3.324 1.993.773 4.23 1.159 6.71 1.159 2.48 0 4.727-.386 6.74-1.159 2.014-.773 3.732-1.88 5.155-3.325 1.423-1.443 2.521-3.182 3.294-5.215.773-2.033 1.159-4.31 1.159-6.832 0-2.521-.386-4.809-1.159-6.862-.773-2.054-1.87-3.803-3.294-5.247-1.423-1.443-3.141-2.561-5.154-3.355-2.014-.793-4.26-1.189-6.741-1.189-2.48 0-4.717.396-6.71 1.19-1.993.793-3.7 1.91-5.124 3.354-1.423 1.444-2.521 3.193-3.294 5.246-.773 2.054-1.159 4.342-1.159 6.863zm8.662 0c0-1.26.122-2.501.366-3.721.244-1.22.66-2.298 1.25-3.233a7.024 7.024 0 0 1 2.349-2.288c.976-.59 2.196-.884 3.66-.884s2.694.295 3.69.885a6.936 6.936 0 0 1 2.38 2.287c.59.935 1.006 2.013 1.25 3.233.244 1.22.366 2.46.366 3.721 0 1.26-.122 2.49-.366 3.69-.244 1.2-.66 2.278-1.25 3.234a6.584 6.584 0 0 1-2.38 2.287c-.996.57-2.226.854-3.69.854s-2.684-.285-3.66-.854a6.66 6.66 0 0 1-2.349-2.287c-.59-.956-1.006-2.034-1.25-3.234a18.47 18.47 0 0 1-.366-3.69zM129.354 118l9.943-31.537h-8.906l-5.795 21.35h-.122l-5.368-21.35h-8.418l-5.246 21.411h-.122l-5.795-21.411h-9.15L100.379 118h8.967l5.368-21.167h.122L120.448 118h8.906z" fill="#0F6EDC"/></g></svg>