<svg width="38" height="41" viewBox="0 0 38 41" xmlns="http://www.w3.org/2000/svg"><title>mini-logo-back</title><defs><linearGradient x1="-6.259%" y1="50%" x2="87.482%" y2="50%" id="b"><stop stop-color="#FFFFFFD04FEB" offset="0%"/><stop stop-color="#0A72EF" offset="13.794%"/><stop stop-color="#529DF3" offset="30.525%"/><stop stop-color="#B1D5FA" offset="61.542%"/><stop stop-color="#D6ECFC" stop-opacity="0" offset="87.298%"/><stop stop-color="#EDF9FD" stop-opacity="0" offset="100%"/></linearGradient><linearGradient x1="0%" y1="50%" x2="94.332%" y2="50%" id="a"><stop stop-color="#82BCFF" offset="0%"/><stop stop-color="#EDF9FD" offset="100%"/></linearGradient><linearGradient x1="50%" y1="0%" x2="50%" y2="100%" id="c"><stop stop-color="#529DF3" offset="0%"/><stop stop-color="#0F6EDC" offset="100%"/></linearGradient></defs><g fill="none" fill-rule="evenodd"><path d="M.198 21l21.446 16V5L.198 21z" stroke="url(#a)" stroke-width=".5" fill="url(#b)" transform="translate(2)"/><path d="M21 25.875V40.5h3.148v-6.043h7.21V31.96h-7.21v-3.38h8.133v-2.704H21z" fill="#0F6EDC"/><path d="M24.258 6.882V2.5h2.531c.374 0 .734.027 1.08.082.345.055.65.16.912.317.263.157.474.38.633.666.16.287.239.662.239 1.127 0 .464-.08.84-.239 1.126a1.74 1.74 0 0 1-.633.666 2.532 2.532 0 0 1-.913.317 6.91 6.91 0 0 1-1.079.082h-2.531zM21 0v14.625h3.258V9.381h3.424c.926 0 1.715-.133 2.365-.4.65-.265 1.18-.617 1.588-1.054.408-.437.705-.939.892-1.506a5.497 5.497 0 0 0 0-3.471 4.041 4.041 0 0 0-.892-1.496c-.409-.437-.938-.788-1.588-1.055C29.397.133 28.608 0 27.682 0H21z" fill="#519DF4"/><path d="M32.537 0v40.5h3.384V0h-3.384z" fill="url(#c)" transform="translate(2)"/></g></svg>