<svg width="38" height="41" viewBox="0 0 38 41" xmlns="http://www.w3.org/2000/svg"><title>mini-logo</title><defs><linearGradient x1="50%" y1="0%" x2="50%" y2="100%" id="a"><stop stop-color="#529DF3" offset="0%"/><stop stop-color="#0F6EDC" offset="100%"/></linearGradient></defs><g fill="none" fill-rule="evenodd"><path d="M21 25.875V40.5h3.148v-6.043h7.21V31.96h-7.21v-3.38h8.133v-2.704H21z" fill="#0F6EDC"/><path d="M24.258 6.882V2.5h2.531c.374 0 .734.027 1.08.082.345.055.65.16.912.317.263.157.474.38.633.666.16.287.239.662.239 1.127 0 .464-.08.84-.239 1.126a1.74 1.74 0 0 1-.633.666 2.532 2.532 0 0 1-.913.317 6.91 6.91 0 0 1-1.079.082h-2.531zM21 0v14.625h3.258V9.381h3.424c.926 0 1.715-.133 2.365-.4.65-.265 1.18-.617 1.588-1.054.408-.437.705-.939.892-1.506a5.497 5.497 0 0 0 0-3.471 4.041 4.041 0 0 0-.892-1.496c-.409-.437-.938-.788-1.588-1.055C29.397.133 28.608 0 27.682 0H21z" fill="#519DF4"/><path d="M13.537 0v40.5h3.384V0h-3.384z" fill="url(#a)" transform="translate(21)"/></g></svg>