<svg width="258" height="312" viewBox="0 0 258 312" xmlns="http://www.w3.org/2000/svg"><title>paper</title><g fill="none" fill-rule="evenodd"><path stroke="#1485E0" stroke-width="4" fill="#FFF" d="M2.46 51.65L185.98 2.477l69.1 257.895-183.52 49.172z"/><g stroke="#C4E1F7"><path d="M37.4 50.6l65 242.4" stroke-width="2"/><path d="M15.4 76.6l172.9-46.3M17.5 84.4L190.4 38M19.6 92.1l172.9-46.3M21.7 99.8l172.9-46.3M23.7 107.6l172.9-46.4M25.8 115.3L198.7 69M27.9 123l172.9-46.3M29.9 130.7l172.9-46.3M32 138.5l172.9-46.4M34.1 146.2L207 99.9M36.1 153.9L209 107.6M38.2 161.6l172.9-46.3M40.3 169.4L213.2 123M42.4 177.1l172.9-46.3M44.4 184.8l172.9-46.3M46.5 192.6l172.9-46.4M48.6 200.3L221.5 154M50.6 208l172.9-46.3M52.7 215.7l172.9-46.3M54.8 223.5l172.9-46.4M56.9 231.2l172.9-46.3M58.9 238.9l172.9-46.3M61 246.6l172.9-46.3M63.1 254.4L236 208M65.1 262.1L238 215.8M67.2 269.8l172.9-46.3M69.3 277.6l172.9-46.4M71.3 285.3L244.2 239M73.4 293l172.9-46.3"/></g><path d="M79.1 283.6c-1.8 0-3.4-1.2-3.9-3-.6-2.1.7-4.3 2.8-4.9.3-.1.7-.1 1-.1 1.8 0 3.4 1.2 3.9 3 .6 2.1-.7 4.3-2.8 4.9-.3 0-.6.1-1 .1z" fill="#FFF"/><path d="M79.1 276.6c1.4 0 2.5.9 2.9 2.2.4 1.6-.5 3.2-2.1 3.7-.3.1-.5.1-.8.1-1.4 0-2.5-.9-2.9-2.2-.4-1.6.5-3.2 2.1-3.7.3-.1.6-.1.8-.1zm0-2c-.4 0-.9.1-1.3.2-2.7.7-4.3 3.5-3.5 6.1.6 2.2 2.6 3.7 4.8 3.7.4 0 .9-.1 1.3-.2 2.7-.7 4.3-3.5 3.5-6.1-.5-2.3-2.6-3.7-4.8-3.7z" fill="#1485E0"/><path d="M51.6 180.7c-1.8 0-3.4-1.2-3.9-3-.3-1-.1-2.1.4-3 .5-.9 1.4-1.6 2.4-1.9.3-.1.7-.1 1-.1 1.8 0 3.4 1.2 3.9 3 .3 1 .1 2.1-.4 3-.5.9-1.4 1.6-2.4 1.9-.3.1-.7.1-1 .1z" fill="#FFF"/><path d="M51.6 173.7c1.4 0 2.5.9 2.9 2.2.2.8.1 1.6-.3 2.3-.4.7-1 1.2-1.8 1.4-.3.1-.5.1-.8.1-1.4 0-2.5-.9-2.9-2.2-.2-.8-.1-1.6.3-2.3.4-.7 1-1.2 1.8-1.4.3-.1.5-.1.8-.1zm0-2c-.4 0-.9.1-1.3.2-2.7.7-4.3 3.5-3.5 6.1.6 2.2 2.6 3.7 4.8 3.7.4 0 .9-.1 1.3-.2 2.7-.7 4.3-3.5 3.5-6.1-.6-2.2-2.6-3.7-4.8-3.7z" fill="#1485E0"/><g><path d="M24 77.8c-1.8 0-3.4-1.2-3.9-3-.6-2.1.7-4.3 2.8-4.9.3-.1.7-.1 1-.1 1.8 0 3.4 1.2 3.9 3 .6 2.1-.7 4.3-2.8 4.9-.3.1-.6.1-1 .1z" fill="#FFF"/><path d="M24 70.8c1.4 0 2.5.9 2.9 2.2.4 1.6-.5 3.2-2.1 3.7-.3.1-.5.1-.8.1-1.4 0-2.5-.9-2.9-2.2-.2-.8-.1-1.6.3-2.3.4-.7 1-1.2 1.8-1.4.3 0 .5-.1.8-.1zm0-2c-.4 0-.9.1-1.3.2-2.7.7-4.3 3.5-3.5 6.1.6 2.2 2.6 3.7 4.8 3.7.4 0 .9-.1 1.3-.2 2.7-.7 4.3-3.5 3.5-6.1-.6-2.2-2.6-3.7-4.8-3.7z" fill="#1485E0"/></g><g><path stroke="#1485E0" stroke-width="4" fill="#FFF" d="M34 23h190v267H34z"/><g stroke="#C4E1F7"><path d="M68 31v251" stroke-width="2"/><path d="M40 50.5h179M40 58.5h179M40 66.5h179M40 74.5h179M40 82.5h179M40 90.5h179M40 98.5h179M40 106.5h179M40 114.5h179M40 122.5h179M40 130.5h179M40 138.5h179M40 146.5h179M40 154.5h179M40 162.5h179M40 170.5h179M40 178.5h179M40 186.5h179M40 194.5h179M40 202.5h179M40 210.5h179M40 218.5h179M40 226.5h179M40 234.5h179M40 242.5h179M40 250.5h179M40 258.5h179M40 266.5h179M40 274.5h179"/></g><path d="M48.8 266.5c-2.2 0-4-1.8-4-4s1.8-4 4-4 4 1.8 4 4-1.7 4-4 4z" fill="#FFF"/><path d="M48.8 259.5c1.7 0 3 1.3 3 3s-1.3 3-3 3-3-1.3-3-3 1.4-3 3-3zm0-2c-2.8 0-5 2.2-5 5s2.2 5 5 5 5-2.2 5-5-2.2-5-5-5z" fill="#1485E0"/><path d="M48.8 160c-2.2 0-4-1.8-4-4s1.8-4 4-4 4 1.8 4 4-1.7 4-4 4z" fill="#FFF"/><path d="M48.8 153c1.7 0 3 1.3 3 3s-1.3 3-3 3-3-1.3-3-3 1.4-3 3-3zm0-2c-2.8 0-5 2.2-5 5s2.2 5 5 5 5-2.2 5-5-2.2-5-5-5z" fill="#1485E0"/><g><path d="M48.8 53.5c-2.2 0-4-1.8-4-4s1.8-4 4-4 4 1.8 4 4-1.7 4-4 4z" fill="#FFF"/><path d="M48.8 46.5c1.7 0 3 1.3 3 3s-1.3 3-3 3-3-1.3-3-3 1.4-3 3-3zm0-2c-2.8 0-5 2.2-5 5s2.2 5 5 5 5-2.2 5-5-2.2-5-5-5z" fill="#1485E0"/></g></g></g></svg>