<svg width="126" height="126" viewBox="0 0 126 126" xmlns="http://www.w3.org/2000/svg"><title>payment</title><g transform="translate(1 1)" fill="none" fill-rule="evenodd"><rect stroke="#1485E0" stroke-width="2" width="124" height="124" rx="100"/><g transform="translate(27 16)"><ellipse fill="#C4E1F7" cx="46.929" cy="22.5" rx="18.804" ry="18.804"/><ellipse fill="#1485E0" cx="20.089" cy="22.5" rx="18.804" ry="18.804"/><path d="M46.929 3.696A18.725 18.725 0 0 1 65.732 22.5 18.725 18.725 0 0 1 46.93 41.304 18.725 18.725 0 0 1 28.125 22.5c0-10.446 8.518-18.804 18.804-18.804zm0-3.214A21.949 21.949 0 0 0 24.91 22.5a21.949 21.949 0 0 0 22.018 22.018A21.949 21.949 0 0 0 68.946 22.5 21.949 21.949 0 0 0 46.93.482z" fill="#FFF"/></g><path d="M51 98l3.464-22H60l-3.463 22H51M71.923 75c-5.601 0-9.544 3.024-9.577 7.354-.035 3.202 2.814 4.988 4.962 6.053 2.208 1.091 2.95 1.79 2.94 2.765-.015 1.492-1.761 2.176-3.39 2.176-2.269 0-3.474-.337-5.337-1.168l-.729-.355L60 96.812c1.321.621 3.77 1.16 6.312 1.188 5.953 0 9.82-2.987 9.866-7.61.02-2.54-1.489-4.466-4.759-6.055-1.98-1.033-3.195-1.718-3.18-2.763 0-.926 1.026-1.918 3.245-1.918 1.853-.03 3.195.404 4.24.856l.509.255.767-4.83c-1.12-.447-2.882-.935-5.077-.935zM84.623 90.187c.461-1.265 2.218-6.153 2.218-6.153-.032.058.459-1.275.74-2.1l.376 1.898s1.069 5.255 1.289 6.355h-4.623zM91.493 76h-4.304c-1.335 0-2.334.39-2.919 1.825L76 98h5.85s.954-2.714 1.17-3.31c.638 0 6.322.012 7.133.012.167.768.678 3.298.678 3.298H96l-4.507-22zM46.994 76l-5.548 15.024-.594-3.054C39.818 84.451 36.6 80.637 33 78.726L38.075 98l5.999-.004L53 76h-6.006" fill="#C4E1F7"/><path d="M36.369 76h-9.293l-.076.457c7.23 1.828 12.014 6.24 14 11.543l-2.02-10.138c-.348-1.399-1.36-1.813-2.611-1.862" fill="#1485E0"/></g></svg>