<svg width="180" height="180" viewBox="0 0 180 180" xmlns="http://www.w3.org/2000/svg"><title>plumbing-wrench-v2</title><g fill="none" fill-rule="evenodd"><rect fill="#FCFCFC" width="180" height="180" rx="10.405"/><path d="M27.052 106.23c0-31.808 25.785-57.593 57.594-57.593s57.594 25.785 57.594 57.594-25.785 57.594-57.594 57.594-57.594-25.785-57.594-57.594" fill="#C9374A"/><path d="M87.658 163.51l-10.803-15.64 7.457 15.72a58.734 58.734 0 0 1-1.68-.03l-7.458-14.87 4.602 14.705c-.559-.046-1.115-.1-1.67-.162l-4.71-13.966 2.252 13.637c-.551-.086-1.1-.179-1.646-.28l-2.446-13.032.302 12.591a57.188 57.188 0 0 1-1.612-.388l-.558-12.138-1.35 11.614a56.935 56.935 0 0 1-1.574-.487l1.065-11.322-2.8 10.727a56.95 56.95 0 0 1-1.534-.579l2.52-10.6-4.141 9.933a56.572 56.572 0 0 1-1.493-.667l3.902-9.966-5.458 9.215a56.676 56.676 0 0 1-1.451-.753l5.29-9.397-6.827 8.54a57.59 57.59 0 0 1-1.408-.84l6.762-8.85-8.319 7.856a57.449 57.449 0 0 1-1.361-.929l8.382-8.271-9.996 7.094a57.699 57.699 0 0 1-1.31-1.02l10.207-7.586-11.91 6.164a57.02 57.02 0 0 1-1.246-1.113l12.279-6.7-14.097 4.954a58.51 58.51 0 0 1-1.168-1.207l14.625-5.504-16.567 3.331A57.484 57.484 0 0 1 39.641 142l17.248-3.863-19.301 1.136a57.24 57.24 0 0 1-.943-1.372l20.113-1.628-22.224-1.8a57.31 57.31 0 0 1-.786-1.427l23.14 1.363-25.193-5.643c-.206-.48-.405-.962-.598-1.449l26.18 5.264-27.982-10.53a57.602 57.602 0 0 1-.39-1.423l29.012 10.197L27.633 114.3a59.238 59.238 0 0 1-.176-1.343l31.337 16.218-31.74-23.589c.004-.405.011-.808.023-1.21l32.816 23.288-31.977-31.555c.06-.345.125-.69.191-1.034l33.084 31.245-30.619-40.077c.102-.278.207-.554.313-.83l31.779 39.756-27.409-48.684c.125-.208.252-.415.38-.621l28.648 48.371-22.25-56.843.394-.428 23.589 56.571L50.8 59.544l.37-.266 16.66 63.804-6.544-69.58.32-.14 8.082 69.525 3.359-73.136.263-.053-1.754 73.254 13.956-74.347.211.004-12.326 74.667 24.647-73.092.171.042-23.04 73.628 34.788-69.363.149.074-33.257 70.108 43.776-63.371.14.112-42.367 64.304 51.107-55.506.135.17-49.853 56.586 56.394-46.261.122.248L80.995 128.4l59.396-36.203.086.351-58.492 37.437 60.061-25.947.015.47-59.316 27.184 58.555-16.092-.101.59-57.939 17.298 55.15-7.132c-.088.233-.177.465-.267.696l-54.622 8.286 50.247.552a58.47 58.47 0 0 1-.477.771l-49.77.546 44.351 6.728c-.235.27-.472.536-.712.8l-43.9-5.677 37.975 11.337c-.316.261-.634.52-.955.774l-37.535-10.315 31.563 14.465c-.39.236-.784.468-1.18.695L81.984 142.56l25.468 16.3c-.455.198-.912.39-1.373.575l-25.085-15.29 19.925 17.09c-.504.15-1.01.291-1.518.427l-19.609-16.085 15.064 17.098c-.536.097-1.074.186-1.614.268l-14.839-16.116 10.919 16.572c-.553.045-1.108.083-1.665.112" fill="#FFF"/><path d="M120.462 46.07l-19.034-10.096-2.066 3.666c.892 5.314.59 10.968-.903 16.962-6.636 13.47-26.195 47-58.676 100.584-9.129 15.079 1.239 21.958 11.235 7.798l58.21-92.787 12.137 5.937 5.296-7.565 2.271 1.395 6.431-11.696-2.997-6.866 6.897-15.595c-.035-3.888-1.19-7.4-3.462-10.533l-14.874-8.467c-4.49.021-9 .778-13.533 2.27l-3.202 5.062 19.937 11.435-3.667 8.495" fill="#1A1918"/><path d="M88.634 163.42l-5.255-22.804c-4.948-1.42-9.457-3.863-13.529-7.33l-14.462-13.554c-2.272-4.782-1.533-7.86 2.788-9.647-2.047-4.33-.726-7.591 3.39-9.37-1.324-4.104.053-8.383 6.459-8.5-1.412-5.152 2.668-9.542 7.84-7.5l3.855 3.034 13.502 3.612 5.757 9.63 1.277 20.574c3.384 9.487 11.68 19.748 21.372 28.475-9.038 7.634-20.464 12.523-32.994 13.38" fill="#1A1918"/><path d="M104.894 160.098l-7.568-16.846c2.61 8.302 3.918 14.33 3.92 18.082a56.827 56.827 0 0 1-7.854 1.773l-1.785-13.57-.32 13.85-.298.034-4.75-22.473c-5.878-2.883-9.082-5.447-9.61-7.693l3.19-8.941 4.474 6.872c-1.112-10.303.25-17.983 4.084-23.037l-1.712-8.278c-9.125.345-13.314-3.423-10.796-9.2 5.486 1.887 9.75 2.14 16.515 2.796l5.135 8.942c.455 11.454 1.065 18.64 1.829 21.553 4.727 10.782 12.75 20.77 20.259 27.926a57.194 57.194 0 0 1-14.713 8.21" fill="#FFF"/><path d="M111.402 71.27l-8.27 13.798c-3.457 5.865 3.828 8.306 7.778 4.765l9.505-14.168-9.013-4.395" fill="#1A1918"/><path d="M74.851 86.105c-2.55-1.24-6.87 1.752-4.83 5.522l4.404 4.625 4.026 8.918c1.99 2.267 5.105 1.223 5.589-1.084l-.568-3.54c-7.342.613-11.146-5.258-9.189-10.901l4.357.518-3.789-4.058M67.543 93.904c-4.225.295-5.96 3.596-4.304 6.592l6.578 4.455 2.918 6.952c1.79 2.494 5.68-.052 4.675-3.667l-3.062-8.644-6.805-5.688M61.822 103.2c-3.511-.005-4.674 3.593-2.67 6.472l6.236 4.56 2.99 4.85c2.396 2.592 6.186.14 4.89-2.852l-4.34-7.83-7.106-5.2M58.606 111.687c-3.179.585-4.034 2.85-2.567 6.794l4.887 5.423 4.123 2.241c2.966.77 5.177-3.483 2.269-5.341l-3.75-2.906-4.962-6.21M82.423 88.66l18.664-33.213 1.408-5.266 4.513.854-4.621-7.851 13.768 6.78.758-.973-13.455-6.553 1.396-2.693 15.61 7.743-2.48 1.936 4.309-.65 8.064 4.305 2.587 6.444-5.488 8.5-13.347-4.736L94.582 92.69 91.89 90.33l-9.467-1.67" fill="#FFF"/><g fill="#FFF"><path d="M131.143 51.54l-7.946-4.103 5.501-11.347-21.304-10.562 2.008-3.142c4.126-1.024 8.084-1.46 11.874-1.31l13.36 6.984c2.002 2.742 2.905 5.943 2.707 9.6l-6.2 13.88M60.093 127.126L39.55 161.333c-4.003 7.662 2.36 11.398 7.458 5.003l21.704-33.185-8.62-6.025"/></g><path d="M61.895 127.45l-17.728 29.83c-1.519 3.268.143 4.117 4.985 2.548-3.28.137-4.196-1.157-2.746-3.88l17.425-26.456-1.936-2.042M84.04 89.323l20.434-32.593c2.755-2.698 6.82-.642 5.621 3.361l-2.37 5.415.212-4.427c.255-2.8-.57-3.27-2.476-1.414L86.855 89.862l-2.815-.539M117.586 59.01l9.22 4.581 2.5-5.602-8.456-4.502-3.188 1.789 3.035-.079 5.67 3.656-.84 1.868-7.941-1.71M127.9 50.658l3.832-7.275-5.254 6.056 1.422 1.219" fill="#1A1918"/><path d="M112.838 73.695l-7.767 12.966c-.111 1.555.441 2.488 1.656 2.797-.854-.661-.925-1.57-.213-2.728l7.839-12.464-1.515-.57M115.388 65.612l9.473 4.668-2.967 5.032-9.158-4.431 2.652-5.27" fill="#FFF"/><path d="M86.87 131.896l8.89 20.612-.57-9.047-1.14 2.292-.113-4.353-1.255 1.26v-4.581l-1.14 1.146-.342-3.665-1.252 1.258-.117-3.319-.796 1.146-2.166-2.75M65.044 120.983c-2.364.08-3 1.158-1.907 3.233.194-1.603.83-2.68 1.907-3.233M71.915 115.429c-2.103-1.079-3.18-.44-3.234 1.917.947-1.317 2.025-1.956 3.234-1.917M77.169 107.75c-2.103-1.08-3.18-.44-3.233 1.916.947-1.316 2.024-1.955 3.233-1.917M82.827 101.687c-2.103-1.079-3.18-.44-3.233 1.917.947-1.317 2.025-1.956 3.233-1.917" fill="#1A1918"/><path d="M54.94 115.514l5.892 7.294 2.595 1.408-2.228-1.724-.04-2.2-.678 1.108-.53-2.911-.735 1.25-.204-2.58-.596 1.25-.53-2.539-.775 1.29-.474-1.725-.693.736-.368-1.25-.636.593M58.038 107.848l6.958 4.954 2.85 3.735.431-2.22-.716.708-.163-1.915-.529.523-.326-1.513-.43.427-.367-2.301-.977 1.23-.838-2.477-.651 1.287-1.083-2.237-.57 1.15-1.042-1.673-.447.845-.651-1.086-.448.603-1.27-1.455.269 1.415M62.215 98.955l8.321 5.01 2.208 5.297.787-2.211-.93.277.143-2.006-.787.36v-2.5l-.848.854-1.002-3.507-.849 1.502-1.564-2.366-.93.936-.992-2.222-.787.792-.777-1.152-.43.648-1.492-1.934-.071 2.222M68.681 89.193l5.659 5.115-1.022-3.09-.637.87-.637-2.11L70.977 91l-.273-1.633-.591.61-.613-1.327-.819.543M89.437 109.262c-4.072 4.738-5.173 10.935-3.3 18.592l3.054-3.518-2.143.667 2.39-2.593-2.554-.75 1.979-1.935-1.732-1.759 2.389-1.084-2.225-1.509 2.561-1.759-1.732-1.167 1.978-1.259-1.403-.25.738-1.676M120.98 23.174l-6.708.878-1.536 2 7.38 3.185-3.196-2.69 5.967 1.686-3.018-2.37 4.369 1.186-2.894-2.126 8.367 2.753-8.731-4.502M91.326 91.479L106.27 68.44l-3.708 1.51 1.198.861-3.435 1.78.547 1.245-2.893 1.942.984.974-2.401 1.992.656 1.186-3.44 2.105 1.148 1.78-3.435 1.997 1.417.973-2.018 1.51 1.308.483-1.69 1.352.82 1.348M67.065 131.087l-17.38 27.08.925-3.88.462.458 1.46-3.731.462.457 1.227-3.955.617 1.825 2.07-4.942.385 1.139 1.31-5.476.843 1.75.539-3.041.766.758.616-2.66.616.61.38-2.816 1.002.458.92-2.436 2.78-1.598M75.552 130.423c1.953 5.035 4.917 7.547 8.892 7.535l-3.315-1.102 1.113-1.102-2.372-.655 1.26-.739-3.034-.424 1.688-2.265-1.773.509.685-1.757-2.287-1.357-.857 1.357M106.673 47.02l1.68 5.025 3.996 1.442-3.092-2.767 3.883 1.12-4.278-2.562 3.685.611-5.874-2.869M76.083 91.883c-1.562 3.034.258 6.25 6.34 7.275l-4.503-2.41h1.128l-1.875-1.208.784-.233-1.494-1.046.71-.356-1.09-.93.791-.86-.791-.232" fill="#1A1918"/><g transform="translate(148 150)" fill="#3FAAF5"><rect width="23" height="5" rx="4"/><rect y="8" width="23" height="5" rx="4"/><rect y="16" width="23" height="5" rx="4"/></g></g></svg>