<svg width="124" height="124" viewBox="0 0 124 124" xmlns="http://www.w3.org/2000/svg" xmlns:xlink="http://www.w3.org/1999/xlink"><title>time</title><defs><linearGradient x1="50%" y1="0%" x2="50%" y2="100%" id="b"><stop stop-color="#E4F3FC" offset="0%"/><stop stop-color="#C4E1F7" offset="100%"/></linearGradient><rect id="a" width="124" height="124" rx="100"/></defs><g fill="none" fill-rule="evenodd"><g><mask id="c" fill="#fff"><use xlink:href="#a"/></mask><use fill="url(#b)" xlink:href="#a"/><ellipse stroke="#1485E0" stroke-width="2" fill="#FFF" mask="url(#c)" cx="61.96" cy="62.5" rx="55.2" ry="55.2"/><path d="M61.96 62.5L37.427 37.967M62.267 63.267h35.266M80.36 45.633L61.96 62.5" stroke="#1485E0" stroke-width="2" mask="url(#c)"/><ellipse stroke="#1485E0" stroke-width="2" fill="#FFF" mask="url(#c)" cx="61.96" cy="62.5" rx="4.6" ry="4.6"/></g><g stroke="#1485E0"><path d="M61.96 25.7V11.9M57.36 18.34l-.613-6.133M52.76 18.953l-1.227-5.98M48.313 20.18l-1.993-5.827M43.867 21.867l-2.454-5.52M39.727 24.013l-3.067-5.366M35.893 26.467l-3.68-4.907M32.213 29.38l-3.986-4.447M28.993 32.753l-4.6-4.14M26.08 36.433l-5.06-3.68M23.473 40.267L18.26 37.2M21.48 44.407l-5.673-2.454M19.793 48.7l-5.826-1.84M18.567 53.3l-5.98-1.38M17.8 57.9l-6.133-.613M25.16 62.5h-13.8M17.8 67.1l-6.133.613M18.567 71.7l-5.98 1.38M19.793 76.3l-5.826 1.84M21.48 80.593l-5.673 2.454M23.473 84.733L18.26 87.8M26.08 88.567l-5.06 3.68M28.993 92.247l-4.6 4.14M32.213 95.62l-3.986 4.447M35.893 98.533l-3.68 4.907M39.727 100.987l-3.067 5.366M43.867 103.133l-2.454 5.52M48.313 104.82l-1.993 5.827M52.76 106.047l-1.227 5.98M57.36 106.66l-.613 6.133M61.96 99.3v13.8M66.713 106.66l.614 6.133M71.313 106.047l1.227 5.98M75.76 104.82l1.84 5.827M80.053 103.133l2.607 5.52M84.193 100.987l3.067 5.366M88.18 98.533l3.527 4.907M91.707 95.62l4.14 4.447M95.08 92.247l4.6 4.14M97.993 88.567l4.907 3.68M100.6 84.733l5.213 3.067M102.593 80.593l5.674 2.454M104.28 76.3l5.827 1.84M105.507 71.7l5.98 1.38M106.273 67.1l6.134.613M98.76 62.5h13.8M106.273 57.9l6.134-.613M105.507 53.3l5.98-1.38M104.28 48.7l5.827-1.84M102.593 44.407l5.674-2.454M100.6 40.267l5.213-3.067M97.993 36.433l4.907-3.68M95.08 32.753l4.6-4.14M91.707 29.38l4.14-4.447M88.18 26.467l3.527-4.907M84.193 24.013l3.067-5.366M80.053 21.867l2.607-5.52M75.76 20.18l1.84-5.827M71.313 18.953l1.227-5.98M66.713 18.34l.614-6.133"/></g></g></svg>