<svg width="285" height="381" viewBox="0 0 285 381" xmlns="http://www.w3.org/2000/svg"><title>Plumbing Wrench</title><g fill="none" fill-rule="evenodd"><path d="M0 216.5C0 137.799 63.799 74 142.5 74S285 137.799 285 216.5c0 78.702-63.799 142.5-142.5 142.5S0 295.202 0 216.5" fill="#C9374A"/><path d="M149.952 358.22l-26.73-38.694 18.45 38.895c-1.39-.007-2.775-.032-4.155-.078l-18.452-36.79 11.386 36.383a142.33 142.33 0 0 1-4.132-.401l-11.652-34.554 5.57 33.741a142.556 142.556 0 0 1-4.072-.695l-6.053-32.243.746 31.153a141.49 141.49 0 0 1-3.988-.96l-1.379-30.032-3.34 28.735a140.863 140.863 0 0 1-3.894-1.204l2.635-28.014-6.93 26.541c-1.274-.46-2.538-.937-3.795-1.432l6.237-26.228-10.248 24.577a139.978 139.978 0 0 1-3.692-1.65l9.652-24.659-13.504 22.801a140.223 140.223 0 0 1-3.59-1.863l13.09-23.25L71.22 339.43a142.486 142.486 0 0 1-3.484-2.078l16.73-21.898-20.582 19.438a142.144 142.144 0 0 1-3.37-2.298l20.74-20.466-24.733 17.552a142.762 142.762 0 0 1-3.24-2.524l25.254-18.768-29.467 15.25a141.084 141.084 0 0 1-3.084-2.754l30.38-16.578-34.876 12.258a144.77 144.77 0 0 1-2.89-2.985l36.185-13.618-40.991 8.242a142.225 142.225 0 0 1-2.644-3.205l42.673-9.559-47.754 2.813a141.62 141.62 0 0 1-2.332-3.396l49.763-4.029-54.987-4.45a141.795 141.795 0 0 1-1.944-3.534l57.254 3.372-62.333-13.962c-.51-1.186-1.004-2.38-1.482-3.583l64.777 13.023L5.55 255.638a142.52 142.52 0 0 1-.966-3.519l71.781 25.23-74.927-40.887a146.568 146.568 0 0 1-.435-3.322l77.533 40.127-78.53-58.365c.008-1.001.027-2 .057-2.996l81.192 57.62-79.116-78.071c.15-.856.307-1.709.472-2.559l81.856 77.305L8.71 167.043c.253-.687.51-1.37.773-2.052l78.629 98.364-67.816-120.456c.31-.514.623-1.026.939-1.536l70.881 119.68-55.051-140.64.976-1.06 58.363 139.969-37.647-158.324.915-.66 41.22 157.865-16.19-172.155.793-.348 19.996 172.02 8.31-180.954.651-.13-4.34 181.245 34.532-183.95.521.009-30.498 184.744L175.65 77.828l.423.103-57.008 182.172L205.14 88.485l.367.182-82.285 173.462 108.313-156.793.345.278-104.824 159.1 126.449-137.332.333.418-123.345 140.008 139.53-114.46.301.615-136.859 117.386 146.96-89.575.212.87-144.721 92.626 148.604-64.199.036 1.162-146.76 67.26 144.878-39.814-.25 1.459-143.352 42.8 136.452-17.648c-.217.577-.438 1.15-.662 1.723l-135.147 20.503 124.323 1.363c-.388.64-.782 1.276-1.18 1.91l-123.143 1.35 109.736 16.648c-.582.664-1.17 1.323-1.763 1.978l-108.616-14.047 93.956 28.051a142 142 0 0 1-2.363 1.914l-92.868-25.521 78.093 35.79c-.966.584-1.94 1.158-2.922 1.72l-77.052-33.288 63.013 40.331a141.95 141.95 0 0 1-3.396 1.422l-62.068-37.832 49.3 42.285c-1.246.368-2.498.72-3.757 1.056l-48.515-39.799 37.27 42.305c-1.324.24-2.656.46-3.993.662l-36.714-39.874 27.014 41.003c-1.367.112-2.74.205-4.118.277" fill="#FFF"/><path d="M231.116 67.648l-47.095-24.979-5.112 9.07c2.207 13.148 1.463 27.138-2.234 41.97-16.418 33.328-64.811 116.286-145.176 248.866-22.586 37.306 3.065 54.327 27.797 19.292L203.32 132.293l30.03 14.688 13.103-18.717 5.62 3.453 15.912-28.938-7.415-16.99 17.065-38.584c-.089-9.62-2.944-18.307-8.567-26.062l-36.8-20.95c-11.11.055-22.271 1.927-33.485 5.618l-7.922 12.524 49.329 28.294-9.074 21.019" fill="#1A1918"/><path d="M152.367 358l-13.003-56.424c-12.24-3.512-23.398-9.558-33.472-18.137l-35.783-33.533c-5.622-11.833-3.792-19.447 6.898-23.87-5.064-10.712-1.797-18.782 8.39-23.184-3.279-10.153.129-20.74 15.978-21.032-3.492-12.745 6.601-23.608 19.398-18.553l9.54 7.504 33.405 8.938 14.246 23.828 3.158 50.903c8.374 23.472 28.897 48.862 52.878 70.452-22.362 18.89-50.63 30.985-81.633 33.108" fill="#1A1918"/><path d="M192.598 349.778l-18.726-41.68c6.46 20.54 9.694 35.453 9.702 44.74a140.6 140.6 0 0 1-19.435 4.385l-4.417-33.573-.792 34.268-.737.082-11.754-55.603c-14.542-7.133-22.468-13.478-23.776-19.033l7.893-22.123 11.07 17.002c-2.751-25.491.617-44.492 10.105-56.998l-4.235-20.482c-22.578.854-32.942-8.469-26.712-22.763 13.573 4.671 24.124 5.297 40.862 6.92l12.705 22.123c1.126 28.341 2.633 46.118 4.524 53.328 11.696 26.676 31.546 51.389 50.125 69.095a141.509 141.509 0 0 1-36.402 20.312" fill="#FFF"/><path d="M208.7 130l-20.46 34.139c-8.555 14.512 9.468 20.551 19.241 11.788L231 140.873 208.7 130" fill="#1A1918"/><path d="M118.265 166.705c-6.31-3.07-16.999 4.334-11.952 13.661l10.898 11.444 9.96 22.066c4.922 5.607 12.632 3.025 13.829-2.684l-1.405-8.757c-18.165 1.517-27.578-13.01-22.736-26.973l10.78 1.283-9.374-10.04M100.183 186c-10.453.731-14.744 8.898-10.65 16.31l16.277 11.023 7.22 17.2c4.43 6.172 14.053-.128 11.566-9.072l-7.576-21.386L100.183 186M86.03 209c-8.689-.012-11.567 8.89-6.608 16.015l15.43 11.283 7.398 11.996c5.927 6.416 15.304.35 12.1-7.055l-10.738-19.371L86.029 209M78.07 230c-7.863 1.447-9.98 7.05-6.35 16.809l12.09 13.418 10.202 5.545c7.34 1.904 12.81-8.619 5.614-13.215l-9.277-7.19L78.07 230M137 173.024l46.178-82.173 3.483-13.03 11.168 2.113-11.436-19.426 34.067 16.777 1.875-2.409-33.291-16.213L192.498 52l38.622 19.158-6.134 4.79 10.66-1.607 19.952 10.65L262 100.935l-13.579 21.03-33.023-11.72L167.083 183l-6.66-5.845L137 173.024" fill="#FFF"/><g fill="#FFF"><path d="M257.544 81.183l-19.66-10.151 13.61-28.077-52.71-26.13 4.968-7.775c10.208-2.534 20.002-3.614 29.379-3.242l33.054 17.281c4.954 6.785 7.187 14.703 6.7 23.753l-15.34 34.341M81.75 268.2l-50.826 84.635c-9.903 18.956 5.84 28.201 18.454 12.378l53.7-82.107L81.75 268.2"/></g><path d="M86.21 269l-43.864 73.805c-3.758 8.087.353 10.188 12.333 6.306-8.116.337-10.38-2.863-6.793-9.602L91 274.052 86.21 269M141 174.667l50.558-80.643c6.817-6.675 16.875-1.59 13.908 8.316l-5.865 13.397.526-10.952c.63-6.927-1.413-8.093-6.128-3.5L147.966 176 141 174.667M224 99.667L246.813 111 253 97.138 232.076 86l-7.887 4.426 7.51-.195 14.028 9.047-2.079 4.62L224 99.669M249.52 79L259 61l-13 14.984L249.52 79" fill="#1A1918"/><path d="M212.253 136l-19.219 32.079c-.273 3.849 1.093 6.156 4.1 6.921-2.114-1.636-2.291-3.887-.528-6.75L216 137.411 212.253 136M218.561 116L242 127.55 234.66 140 212 129.036 218.561 116" fill="#FFF"/><path d="M148 280l22 51-1.414-22.384-2.817 5.67-.282-10.77-3.104 3.119v-11.337l-2.822 2.835-.845-9.066-3.099 3.113-.287-8.213-1.972 2.836L148 280M94 253c-5.85.2-7.422 2.866-4.717 8 .478-3.967 2.05-6.634 4.717-8M111 239.257c-5.203-2.669-7.87-1.088-8 4.743 2.343-3.257 5.01-4.838 8-4.743M124 220.257c-5.203-2.669-7.87-1.088-8 4.743 2.343-3.257 5.01-4.838 8-4.743M138 205.257c-5.203-2.669-7.87-1.088-8 4.743 2.343-3.257 5.01-4.838 8-4.743" fill="#1A1918"/><path d="M69 239.468l14.579 18.048L90 261l-5.512-4.267-.101-5.442-1.676 2.74-1.313-7.203-1.817 3.093-.505-6.382-1.474 3.093-1.312-6.283-1.918 3.19-1.172-4.267-1.716 1.82-.909-3.092L69 239.468M76.665 220.501l17.217 12.257 7.05 9.242 1.068-5.494-1.772 1.752-.403-4.738-1.31 1.294-.805-3.742-1.067 1.055-.906-5.694-2.417 3.046-2.074-6.131-1.611 3.185L86.956 221l-1.41 2.847-2.577-4.14-1.108 2.09-1.611-2.688-1.108 1.493L76 217l.665 3.501M87 198.498l20.589 12.394L113.052 224l1.948-5.472-2.302.687.354-4.963-1.948.89v-6.184l-2.099 2.112-2.479-8.678-2.099 3.716-3.87-5.854-2.302 2.316-2.453-5.497-1.947 1.96-1.923-2.851-1.062 1.603L87.177 193 87 198.498M103 174.345L117 187l-2.529-7.647-1.575 2.156-1.575-5.225-2.642 2.53-.675-4.038-1.463 1.508-1.516-3.284-2.025 1.345M154.355 224c-10.077 11.721-12.8 27.055-8.166 46l7.556-8.705-5.301 1.65 5.91-6.415-6.317-1.857 4.896-4.785-4.286-4.352 5.911-2.682-5.504-3.734 6.336-4.352-4.286-2.888 4.896-3.115-3.473-.619 1.828-4.146M232.397 11l-16.596 2.172L212 18.12 230.26 26l-7.908-6.655 14.763 4.173-7.466-5.863 10.81 2.931-7.161-5.259L254 22.137 232.397 11M159.028 180L196 123l-9.175 3.736 2.965 2.131-8.5 4.405 1.353 3.078-7.157 4.806 2.434 2.408-5.94 4.93 1.623 2.934-8.51 5.208 2.84 4.405-8.499 4.94 3.506 2.409-4.993 3.736 3.235 1.194-4.182 3.345 2.028 3.335M99 278l-43 67 2.288-9.598 1.144 1.132 3.61-9.232 1.143 1.132 3.038-9.787 1.525 4.516 5.123-12.227.953 2.818 3.24-13.548 2.085 4.328 1.334-7.523 1.894 1.874 1.525-6.579 1.525 1.51.941-6.969 2.478 1.132 2.276-6.025L99 278M120 276.357c4.832 12.457 12.165 18.672 22 18.643l-8.2-2.727 2.753-2.728-5.87-1.618 3.116-1.829-7.505-1.049 4.176-5.605-4.388 1.26 1.695-4.347-5.659-3.357-2.118 3.357M197 70l4.158 12.432L211.044 86l-7.65-6.847L213 81.928l-10.585-6.343 9.118 1.514L197 70M121.313 181c-3.865 7.507.64 15.465 15.687 18l-11.142-5.963h2.79l-4.638-2.99 1.94-.575-3.696-2.588 1.756-.88-2.697-2.302 1.958-2.127-1.958-.575" fill="#1A1918"/></g></svg>