<svg width="54" height="69" viewBox="0 0 54 69" xmlns="http://www.w3.org/2000/svg"><title>Yelp Logo</title><g fill="#424242" fill-rule="evenodd"><path d="M26.798 26.827c.067.858.158 1.715.197 2.574.076 1.739-.663 2.984-2.01 3.447-1.273.438-2.587-.077-3.5-1.492A6310.93 6310.93 0 0 1 6.63 8.236C5.517 6.494 5.88 5.112 7.704 4.07 11.127 2.113 14.839 1.02 18.688.407 19.99.2 21.313.114 22.628.014c1.796-.135 2.783.697 2.891 2.525.36 6.104.682 12.21 1.017 18.314.108 1.99.21 3.98.314 5.97l-.052.004M36.144 45c.687.167 1.386.296 2.058.509 4.322 1.366 8.64 2.746 12.956 4.13 2.857.915 3.652 2.526 1.965 4.98a63.174 63.174 0 0 1-6.53 8.008c-2.034 2.112-3.876 1.728-5.458-.743a779.893 779.893 0 0 1-7.493-11.9c-1.506-2.446-.237-4.871 2.502-4.984M32 35.842c.305-.647.515-1.365.93-1.928 3.077-4.173 6.182-8.325 9.305-12.463 1.351-1.79 2.782-1.945 4.376-.347 2.699 2.705 4.974 5.75 6.7 9.19.203.408.364.847.482 1.288.565 2.111.01 3.181-2.095 3.689a965.292 965.292 0 0 1-15.687 3.641c-2.08.465-3.831-.966-4.011-3.07M.703 34.407c.336-2.023 1.52-2.707 3.547-2.29.646.133 1.29.323 1.901.567 4.185 1.67 8.365 3.352 12.536 5.053 2.018.823 2.836 2.394 1.97 4.008-.336.627-1.029 1.27-1.7 1.491-4.744 1.56-9.507 3.072-14.301 4.473-2.8.818-4.155-.072-4.546-2.88-.178-1.282-.03-2.608-.03-3.913l-.08-.01c.224-2.168.345-4.353.703-6.5zM26.82 59.048c0 2.37.023 4.74-.007 7.11-.03 2.339-.815 3.095-3.08 2.77-3.78-.542-7.409-1.644-10.744-3.585-2.35-1.368-2.598-3.003-.85-5.105 3.001-3.607 6.017-7.202 9.036-10.793 1.099-1.308 2.38-1.727 3.714-1.26 1.35.471 2.068 1.56 2.093 3.353.035 2.503.009 5.007.009 7.51h-.171"/></g></svg>